<mxfile host="app.diagrams.net" agent="Mozilla/5.0 (Windows NT 10.0; Win64; x64) AppleWebKit/537.36 (KHTML, like Gecko) Chrome/140.0.0.0 Safari/537.36" version="28.2.5">
  <diagram name="Page-1" id="jeImq9hniOi7gRExNDTG">
    <mxGraphModel grid="0" page="1" gridSize="10" guides="1" tooltips="1" connect="1" arrows="1" fold="1" pageScale="1" pageWidth="827" pageHeight="1169" background="none" math="0" shadow="0">
      <root>
        <mxCell id="0" />
        <mxCell id="1" parent="0" />
        <mxCell id="X30H0_A2dR2WA-kwwvzt-2" value="GREEN" style="ellipse;whiteSpace=wrap;html=1;aspect=fixed;" vertex="1" parent="1">
          <mxGeometry x="117" y="348" width="80" height="80" as="geometry" />
        </mxCell>
        <mxCell id="X30H0_A2dR2WA-kwwvzt-4" value="YELLOW" style="ellipse;whiteSpace=wrap;html=1;aspect=fixed;" vertex="1" parent="1">
          <mxGeometry x="374" y="348" width="80" height="80" as="geometry" />
        </mxCell>
        <mxCell id="X30H0_A2dR2WA-kwwvzt-5" value="RED" style="ellipse;whiteSpace=wrap;html=1;aspect=fixed;" vertex="1" parent="1">
          <mxGeometry x="672" y="348" width="80" height="80" as="geometry" />
        </mxCell>
        <mxCell id="X30H0_A2dR2WA-kwwvzt-6" value="DELAY 20 S&amp;nbsp;" style="endArrow=classic;html=1;rounded=0;exitX=1;exitY=0.5;exitDx=0;exitDy=0;entryX=0;entryY=0.5;entryDx=0;entryDy=0;" edge="1" parent="1" source="X30H0_A2dR2WA-kwwvzt-2" target="X30H0_A2dR2WA-kwwvzt-4">
          <mxGeometry x="-0.1045" y="10" width="50" height="50" relative="1" as="geometry">
            <mxPoint x="390" y="560" as="sourcePoint" />
            <mxPoint x="440" y="510" as="targetPoint" />
            <Array as="points" />
            <mxPoint as="offset" />
          </mxGeometry>
        </mxCell>
        <mxCell id="X30H0_A2dR2WA-kwwvzt-7" value="" style="endArrow=classic;html=1;rounded=0;exitX=1;exitY=0.5;exitDx=0;exitDy=0;entryX=0;entryY=0.5;entryDx=0;entryDy=0;" edge="1" parent="1" source="X30H0_A2dR2WA-kwwvzt-4" target="X30H0_A2dR2WA-kwwvzt-5">
          <mxGeometry width="50" height="50" relative="1" as="geometry">
            <mxPoint x="520" y="540" as="sourcePoint" />
            <mxPoint x="654" y="540" as="targetPoint" />
            <Array as="points" />
          </mxGeometry>
        </mxCell>
        <mxCell id="X30H0_A2dR2WA-kwwvzt-10" value="DELAY 5&amp;nbsp;&lt;span style=&quot;background-color: light-dark(#ffffff, var(--ge-dark-color, #121212)); color: light-dark(rgb(0, 0, 0), rgb(255, 255, 255));&quot;&gt;S&lt;/span&gt;" style="edgeLabel;html=1;align=center;verticalAlign=middle;resizable=0;points=[];" connectable="0" vertex="1" parent="X30H0_A2dR2WA-kwwvzt-7">
          <mxGeometry x="-0.3875" y="-3" relative="1" as="geometry">
            <mxPoint x="17" y="-13" as="offset" />
          </mxGeometry>
        </mxCell>
        <mxCell id="W14MNhVP4n23UgDkimWh-5" value="YELLOW" style="ellipse;whiteSpace=wrap;html=1;aspect=fixed;" vertex="1" parent="1">
          <mxGeometry x="374" y="348" width="80" height="80" as="geometry" />
        </mxCell>
        <mxCell id="W14MNhVP4n23UgDkimWh-12" value="" style="endArrow=classic;html=1;rounded=0;exitX=0;exitY=1;exitDx=0;exitDy=0;entryX=1;entryY=1;entryDx=0;entryDy=0;" edge="1" parent="1" source="W14MNhVP4n23UgDkimWh-5" target="X30H0_A2dR2WA-kwwvzt-2">
          <mxGeometry width="50" height="50" relative="1" as="geometry">
            <mxPoint x="388" y="506" as="sourcePoint" />
            <mxPoint x="316" y="477" as="targetPoint" />
          </mxGeometry>
        </mxCell>
        <mxCell id="W14MNhVP4n23UgDkimWh-15" value="DELAY 5 S" style="edgeLabel;html=1;align=center;verticalAlign=middle;resizable=0;points=[];" connectable="0" vertex="1" parent="W14MNhVP4n23UgDkimWh-12">
          <mxGeometry x="0.0908" y="-4" relative="1" as="geometry">
            <mxPoint y="16" as="offset" />
          </mxGeometry>
        </mxCell>
        <mxCell id="W14MNhVP4n23UgDkimWh-13" value="" style="endArrow=classic;html=1;rounded=0;entryX=1;entryY=1;entryDx=0;entryDy=0;exitX=0.058;exitY=0.798;exitDx=0;exitDy=0;exitPerimeter=0;" edge="1" parent="1" source="X30H0_A2dR2WA-kwwvzt-5" target="W14MNhVP4n23UgDkimWh-5">
          <mxGeometry width="50" height="50" relative="1" as="geometry">
            <mxPoint x="388" y="506" as="sourcePoint" />
            <mxPoint x="438" y="456" as="targetPoint" />
          </mxGeometry>
        </mxCell>
        <mxCell id="W14MNhVP4n23UgDkimWh-14" value="DELAY 20 S" style="edgeLabel;html=1;align=center;verticalAlign=middle;resizable=0;points=[];" connectable="0" vertex="1" parent="W14MNhVP4n23UgDkimWh-13">
          <mxGeometry x="-0.1359" y="1" relative="1" as="geometry">
            <mxPoint x="-13" y="9" as="offset" />
          </mxGeometry>
        </mxCell>
      </root>
    </mxGraphModel>
  </diagram>
</mxfile>
